<svg xmlns="http://www.w3.org/2000/svg" viewBox="0 0 1024 1024"><defs><style>.a{fill:#e6e6e6;}.b{fill:#99978a;}</style></defs><title>logo</title><rect class="a" width="1024" height="1024"/><path class="b" d="M579.06,609.69,512,727.49l-69.23-117.8L403.8,635.6l87.72,141.19h40.96L620.2,635.06ZM532.12,247.21h-40.6L403.8,388.4l40.78,25.91L512,296.69l68.69,117.62L620.2,389.3Z"/><path class="b" d="M682.18,492.25q-12.87,28.08-28,42.68-15.13494,14.58-37.79,14.59a46.68643,46.68643,0,0,1-16.85-2.99,62.02287,62.02287,0,0,1-13.78-7.25q-5.985-4.26-13.95-10.97a135.79676,135.79676,0,0,0-14.77-11.33,22.98078,22.98078,0,0,0-12.42-3.71,20.4366,20.4366,0,0,0-3.34.27c.87,1,1.68,1.97,2.43994,2.9a49.13685,49.13685,0,0,1,7.34,12.87,45.05965,45.05965,0,0,1,2.99,16.76,48.0245,48.0245,0,0,1-2.99,17.13,59.19919,59.19919,0,0,1-7.25,13.77q-4.26,5.895-11.15,14.05A130.71988,130.71988,0,0,0,521.42,605.7a22.61872,22.61872,0,0,0-3.62,12.14,24.20122,24.20122,0,0,0,6.89,17.13q6.885,7.335,21.56,15.13l-14.49,32.08q-28.095-12.87-42.69-28-14.58-15.135-14.59-37.79a46.68643,46.68643,0,0,1,2.99-16.85,62.024,62.024,0,0,1,7.25-13.78q4.26-5.97006,10.97-13.95a134.84321,134.84321,0,0,0,11.33-14.77,22.98071,22.98071,0,0,0,3.71-12.42,20.12761,20.12761,0,0,0-1.3-7.22c-.8.66-1.57,1.29-2.33,1.88a53.13814,53.13814,0,0,1-12.77,7.25,43.21412,43.21412,0,0,1-16.41,2.99,46.72525,46.72525,0,0,1-16.85-2.99,61.94329,61.94329,0,0,1-13.77-7.25q-5.985-4.26-13.96-10.97a134.84133,134.84133,0,0,0-14.77-11.33,22.9731,22.9731,0,0,0-12.41-3.71,23.98435,23.98435,0,0,0-17.22,6.98q-7.245,6.97494-15.05,21.29l-32.07-14.32a206.99888,206.99888,0,0,1,17.39-29.72,75.3767,75.3767,0,0,1,20.94-19.93,50.272,50.272,0,0,1,27.45-7.62,47.94561,47.94561,0,0,1,17.13,2.99,59.86354,59.86354,0,0,1,13.78,7.25q5.88,4.26,14.04,11.15a131.62574,131.62574,0,0,0,14.68,11.24,22.65136,22.65136,0,0,0,12.15,3.62,20.44869,20.44869,0,0,0,4.33-.45,54.65576,54.65576,0,0,1-6.24-11.42,43.1614,43.1614,0,0,1-2.99-16.4,46.77947,46.77947,0,0,1,2.99-16.86,62.16623,62.16623,0,0,1,7.25-13.77q4.26-5.985,10.97-13.96a134.8435,134.8435,0,0,0,11.33-14.77,22.92326,22.92326,0,0,0,3.71-12.41,23.9842,23.9842,0,0,0-6.98-17.22q-6.975-7.245-21.29-15.04L496.78,341.82a206.06189,206.06189,0,0,1,29.72,17.4,75.52713,75.52713,0,0,1,19.94,20.93,50.384,50.384,0,0,1,7.61,27.46,47.93,47.93,0,0,1-2.99,17.12,59.47991,59.47991,0,0,1-7.25,13.78q-4.26,5.895-11.15,14.04a131.64053,131.64053,0,0,0-11.24,14.68,22.67413,22.67413,0,0,0-3.62,11.99,50.31914,50.31914,0,0,1,11.51-6.28,45.05965,45.05965,0,0,1,16.76-2.99,48.0245,48.0245,0,0,1,17.13,2.99,59.78489,59.78489,0,0,1,13.77,7.25q5.89508,4.26,14.05005,11.15a130.70558,130.70558,0,0,0,14.68,11.24,22.61832,22.61832,0,0,0,12.14,3.62A24.21808,24.21808,0,0,0,634.97,499.31q7.335-6.885,15.13-21.56Z"/><path class="b" d="M635.06,403.8l-25.38,41.14L727.49,512,609.68,581.23,635.6,620.2l141.19-87.72V491.52ZM414.31,443.31,389.3,403.8,247.21,491.88v40.6L388.39,620.2l25.92-40.78L296.69,512Z"/></svg>