<?xml version="1.0" encoding="utf-8"?>
<!-- Generator: Adobe Illustrator 21.1.0, SVG Export Plug-In . SVG Version: 6.00 Build 0)  -->
<svg version="1.1" id="图层_1" xmlns="http://www.w3.org/2000/svg" xmlns:xlink="http://www.w3.org/1999/xlink" x="0px" y="0px"
	 viewBox="0 0 800.4 130.4" style="enable-background:new 0 0 800.4 130.4;" xml:space="preserve">
<style type="text/css">
	.st0{fill:#373D41;}
</style>
<title>先知技术社区</title>
<g>
	<polygon class="st0" points="0,121.4 0,27.3 56.3,27.3 	"/>
	<polygon class="st0" points="89.9,8.4 89.9,102.5 33.5,102.5 	"/>
</g>
<path class="st0" d="M130.7,58.4c-2.3-1.4-4.7-2.9-7.2-4.5c6-6.9,10.7-16.2,14.1-27.9l8.3,1.7c-0.7,1.6-1.6,3.9-2.8,6.9
	c-0.7,2.3-1.3,3.9-1.7,4.8h17.5V24h8.3v15.5h29.6V47h-29.6v15.1h34.7V70h-26.5v21.3c-0.2,3.4,1.6,5,5.5,4.8h7.2
	c3.2,0.2,5.3-1.3,6.2-4.5c0.2-1.4,0.5-4.1,0.7-8.3c0,0.7,0.1-0.1,0.3-2.4l7.6,2.8c-0.2,4.1-0.7,7.9-1.4,11.4
	c-1.6,6-5.8,8.8-12.7,8.6h-10.7c-7.6,0.2-11.2-3.2-11-10.3V70.1h-15.8v3.1c0,15.4-9.1,26.4-27.2,33c-1.4-2.1-3-4.6-4.8-7.6
	C135.1,94,143,85.4,143,72.8V70h-22.7v-7.9h38.5V47h-21.3C135.5,51.1,133.2,54.9,130.7,58.4z"/>
<path class="st0" d="M213.2,54.6c-0.5-0.2-1.2-0.7-2.1-1.4c-1.8-1.4-3.2-2.3-4.1-2.8c4.8-8.9,8.1-17.9,10-26.8l7.6,1.4
	c-0.5,1.8-1.3,4.4-2.4,7.6c-0.2,1.2-0.5,2-0.7,2.4h24.1v7.2h-12c0,8.7-0.1,14.9-0.3,18.6h14.1V68h-14.8c0,2.3-0.2,4.5-0.7,6.5
	c1.6,1.6,3.8,4,6.5,7.2c4.6,4.8,8,8.6,10.3,11.4l-5.8,5.2c-0.9-1.2-2.3-2.8-4.1-4.8c-1.8-2.3-4.8-5.8-8.9-10.7
	c-2.5,7.8-8.4,15.5-17.5,23.1c-2.3-2.8-4.1-4.8-5.5-6.2c11.2-8.9,17.3-19.5,18.2-31.7h-17.2v-7.2h17.5c0.2-3.9,0.3-10.1,0.3-18.6
	h-6.9C217.1,46.3,215.3,50.4,213.2,54.6z M251.4,102.7V31.9h35.8v70.5h-8.3v-7.6h-19.6v7.9C259.3,102.7,251.4,102.7,251.4,102.7z
	 M259.3,39.4v47.8h19.6V39.4H259.3z"/>
<path class="st0" d="M297.2,81.1c-0.2-0.9-0.6-2.3-1-4.1c-0.7-1.8-1.2-3.2-1.4-4.1c9.2-6.2,16.4-14.3,21.7-24.4h-19.6v-6.9h27.5v7.2
	c-2.5,5.5-5.4,10.4-8.6,14.8v42.3h-7.6V72.1C305,75.1,301.4,78.1,297.2,81.1z M311.7,40.5c-0.2-0.5-0.6-1.1-1-2.1
	c-2.8-6-4.6-9.7-5.5-11.4l6.9-3.1c0.7,1.2,1.8,3.3,3.4,6.5c1.6,3,2.8,5.2,3.4,6.5L311.7,40.5z M326.8,80.7
	c-1.6-2.1-4.7-5.6-9.3-10.7c-0.2-0.2-0.5-0.5-0.7-0.7l4.8-4.5c2.1,1.8,4.9,4.6,8.6,8.3c1.1,1.2,1.9,2,2.4,2.4L326.8,80.7z
	 M328.5,56.6V49h18.6V24.3h8.3v24.8H375v7.6h-19.6v39.2h22.4v6.9h-53v-6.9h22.4V56.6H328.5z"/>
<path class="st0" d="M389.8,101.4V29.1H462v7.6h-64.3v57.8h65.7v6.9H389.8z M450.3,90.4c-6.2-6.6-12.6-13-19.3-18.9
	c-6,5.7-13.4,12.3-22.4,19.6c-1.4-1.6-3.4-3.8-6.2-6.5c8.3-5.7,15.8-12,22.7-18.9c-6.9-6.4-13.8-12.7-20.6-18.9l6.2-5.2L431,60.2
	c5.5-6.2,10.9-12.8,16.2-20l7.2,4.5c-5.7,7.6-11.6,14.4-17.5,20.6c6.9,6.7,13.6,13,20.3,18.9L450.3,90.4z"/>
</svg>
